<?xml version="1.0" ?>
<svg xmlns="http://www.w3.org/2000/svg" id="svg2" viewBox="0 0 768.83 618.53">
	<defs>
		<style>.cls-1{fill:none;stroke:#646464;stroke-linecap:round;stroke-linejoin:round;stroke-width:2px;}.cls-2{fill:#646464;}</style>
	</defs>
	<path id="path3206" class="cls-1" d="M434.38,513l-1.14,3.45c-1.15,3.45-1.92,3.83-1.92,7.66s2.3,8.43,0,12.26-5.36,2.68-7.66,6.12-2.3,4.22-1.53,8.81,5,6.51,4.21,9.19-1.91,1.54-1.53,4.22-5,11.49-.38,13.4,6.89,4.6,5,6.51-1.15,3.45-3.83,6.9-3.83,5.74-1.54,6.89,3.45.76,3.83,3.45,3.83,6.89,3.83,6.89" transform="translate(-30.08 -22.1)"/>
	<path id="path3208" class="cls-1" d="M436.68,501.13s-.76-2.3-5.36.39-3.45,4.59-7.66,2.68-2.68-6.13-9.19-3.45-8.43,3.06-12.64,5-5.74,1.91-11.11,3.83-9.19,1.91-14.17,2.3-8-2.3-14.93.38-9.58,3.06-16.09,7.28-8,5.74-6.89,9.57,6.51,6.13-.77,7.66-5,0-11.49-1.92-6.51-3.83-8.8-5-6.9-5-5-.39,3.44,10,1.15,11.11-.77-1.92-3.45.76,1.53,2.3-4.6,7.66-4.59,5.75-11.1,6.9-5.75.38-11.88.76-13.78-3.83-16.46,1.92-12.26,11.49-3.45,13.79,11.87,3.83,19.53,3.83,13,0,17.62-.77,4.21-.77,11.87.77,14.17-.77,16.09,3.44,4.59,7.28,3.06,10.73-6.89,2.29-3.83,7.66,6.13,5.74,6.89,9.19-4.21,9.95-4.21,9.95" transform="translate(-30.08 -22.1)"/>
	<path id="path3210" class="cls-1" d="M313,531.72a11.32,11.32,0,0,0-5.72-1.48c-3.45,0-4.6-1.15-9.58,1.15s-7.66,1.91-9.19,1.15-3.06,1.91-5.36,3.83-6.9,3.06-8.81,5.74,1.15,3.45-4.21,3.83-7.66-.77-12.64.77a23.46,23.46,0,0,0-10,6.51c-1.91,1.91-7.28,15.7-7.28,15.7" transform="translate(-30.08 -22.1)"/>
	<path id="path3212" class="cls-1" d="M307.24,530.24s3.44-2.3-2.3-4.21-8.43-2.3-6.51-5.37,6.12-6.51.38-9.19-3.83,6.51-8.43-4.59-1.53-10-5-13.79-5.75-4.21-5.75-8S279.28,477,277,477s-5.36.77-5.74-4.59-3.45-3.83-3.07-8.81.38-6.89,1.53-10.72,0-3.07-.76-6.13.76-1.92.76-6.13-3.83-6.13-.76-8.81,5.36-5.36,8-7.66,5.36-1.91,5-5.36a65.53,65.53,0,0,1-.77-9.19c-.38-8,6.13-15.32-.76-12.64s-5.37,7.66-8.05,5.36-2.29-2.68-1.53-6.51,3.07-7.66,0-9.57-3.06.38-5.36-2.68-1.91-1.92-4.6-7.28-3.83-6.89-5.36-7.28-1.91-1.53-3.83-3.83-3.44-.76-4.21-3.83,3.45.39-2.3-4.59-1.15-4.6-9.19-6.51-14.55-4.6-18.76-2.3-6.52,1.92-5.75,6.89,7.28,8.43,6.89,10.73.77,5.36-4.21,7.27-7.28,1.15-11.49,4.6-6.13,3.83-6.13,7.66,3.07,5-2.29,8-13.41,2.3-10.34,7.28,9.57,11.1,13.78,15.7,3.83,6.89,3.83,6.89-32.55-2.68-37.91-5-1.53-3.45-7.28-2.69-5.36,1.15-11.11.77-13.78-2.68-17.61-.38-7.28-1.92-9.58,3.06-2.68,10.72-6.12,11.87-2.69,0-10.73,1.54-8.42-1.54-13.78,3.44-8,7.66-8,7.66" transform="translate(-30.08 -22.1)"/>
	<path id="path3214" class="cls-1" d="M81.28,244.15s6.89,9.19,10.34,12.26,8.42,4.21,8.81,9.19-4.22,6.13-.77,9.19,4.6,1.92,4.6,7.66-.39,7.28,1.91,10.34,2.68,6.13,3.83,8.81,0,2.68-1.91,7.28-1.92,6.12.38,8.42,1.53-.38,1.91,5,1.92,6.13,4.6,8,4.6-1.53,7.66,1.92,3.06,5,7.66,6.51,5,5,9.19,4.21,4.21-1.53,8.81,1.15,5.36,3.06,9.19,4.21,5.36-1.15,8.43.39-1.92,1.15,5,2.29,5.75,2.69,12.64,1.15,3.83-3.83,13-3.83,21.83-.76,21.83-.76" transform="translate(-30.08 -22.1)"/>
	<path id="path3216" class="cls-1" d="M240.21,351.39s-4.21-5,2.68-5a27.83,27.83,0,0,0,11.49-2.3,7.62,7.62,0,0,1,5.75,1.15c3.06,1.91,4.59,3.06,6.13-1.15s5.74-6.89,4.21-11.11-1.53-5.36-4.21-10.72-8.05-6.51-2.3-8.42,3.06-5.75,8.81-5.75,6.51-2.68,8.42,1.92-.76,6.89,5.75,6.89,1.15-1.53,9.57,1.53,14.17,7.28,18.38,5-16.46.38,4.6-3.06,23-4.6,26.43-2.68,7.27,1.14,9.19,6.89,1.53,12.25,6.13,13,9.19,2.68,13.4,2.3,6.51,2.68,9.19,2.68,6.89-5.75,10-5.36,7.28,1.53,11.1,1.91a23.13,23.13,0,0,1,5.75,1.15s5,3.06,1.53,5.36-7.66,2.3-3.06,5.75,4.59,4.59,10.34,6.51,6.13,1.91,10.34,3.06,8.81-.38,8.42,2.68-3.83,1.53-1.91,5,5.36,1.15,5,6.51-.39,10.34-2.68,13-2.68,3.83-6.51,5.75-3.07-.77-6.9,1.91-9.57,4.22-9.19,8.05,3.45,3.06,1.15,8.42-1.91,6.13-4.21,7.66-1.15,3.06-2.68,5.36-4.22,1.15-6.13,3.83,0,2.68-1.92,5.75-3.06,1.91-6.12,4.59-1.15,6.9-5.37,1.53.39-9.57-6.12-10.72-14.56-3.83-16.09,0,2.3,3.45,3.83,6.89-5.36-.38,1.53,6.13,11.49,7.66,12.64,10,.38,6.13.38,10,0,3.83,6.52,5a66.63,66.63,0,0,0,10.34,1.14s1.91,8.43.38,11.49-7.66,3.07-.77,6.13,4.6,2.3,12.64,6.51a75,75,0,0,1,12.83,8.33" transform="translate(-30.08 -22.1)"/>
	<path id="path3218" class="cls-1" d="M440.89,381.64a53.83,53.83,0,0,0,9.58,4.6c5.36,1.91,8,2.3,11.87,6.51s6.9,10.34,8.43,12.64,5,2.68,5,2.68,3.44,2.68,4.59,6.13,1.92,6.89,1.53,9.57-7.27,2.68,1.92,3.83,6.51-2.3,12.64-1.15,1.91-3.45,8,4.21,13,14.94,13,14.94" transform="translate(-30.08 -22.1)"/>
	<path id="path3220" class="cls-1" d="M755.84,361.38c1.44,11.21,16.47-.22,17.32,6s-7.91,16.69,4.07,15.41-4.71,22.67,7.91,23.74,14.55,19.25,7.88,25.67-7.88,11.76-7.88,11.76L795,456.13s-1.05-10.26-.05,9-13,2.35-13,2.35-1.92.21-9.62,5.61-10.48-1.12-11.55-2.62-9.41-6.2-11.55-7.7-6,1.93-6,1.93c-3.27,3.41-9.2,2.78-9.2,2.78S729.9,477.57,730,476s-27.6.42-28.88,1.49-10.69,14.33-13.48,9-13,19.89-22,13.9,1.07-8.56-1.92-10.91-4.07-8.13-2.78-11.55-.86-21.6-4.92-13.9-20.54-.86-24-.64-.22,3.2-.86,4.27-9.2,4.07-12.41,4.07-15.24-8.38-18.61-8.34-13.26,8.34-13.26,8.34-2.14-3-8.13-8.13-15.1-5.35-15.1-5.35,2.68,2-7.79-8.34-12.62-3.85-17.75.64S517,446.41,517,446.41l-6.36-9.24s4.21-1.14,5.74-2.29,6.9-1.15,10-4.22,1.15-7.27,6.89-5.74,11.88,6.13,11.49,1.15,2.68-9.58,4.6-11.87,4.59-1.92,4.59-5a20.56,20.56,0,0,1,2.68-10c1.92-3.45,3.83-5,3.45-7.66s4.21-7.66,3.83-9.57a16.23,16.23,0,0,1-.38-2.69s4.59-.76,9.19-1.14,3.45-1.92,10.34,1.14,10.34,4.6,11.49,1.54-1.15-3.83,2.3-7.28,2.3-1.53,8.81-10.34,5-6.51,5.74-12.64-.77-8.81,1.15-14.55,3.83-8.81,3.83-12.26,2.3-6.89,4.21-8.81,4.6-2.68,6.51-3.83-4.59-2.68,2.3-3.44,6.13-4.22,11.11-1.15,9.19,5.74,14.17,9.19,7.27,5.36,13.4,7.66,9.58,3.45,14.94,8.43,9.19,9.19,13.78,12.25,5.75,5.75,10,8.81,9.58,9.57,13,6.13,1.92-3.07,1.92-5.75,6.51-1.91,6.51-1.91,3.06-.39,10-1.92,3.06-5.36,7.66-4.21l7.66,1.91C749.61,363.21,754.4,350.16,755.84,361.38Z" transform="translate(-30.08 -22.1)"/>
	<path id="path3222" class="cls-1" d="M630.47,307s-3.06-1.53,3.06-3.45,5.75,1.15,8.43-2.68,7.28-3.06,7.28-6.51-6.52-1.91,0-5,7.27-1.91,7.66-6.51.76-7.66,3.06-10.34,6.89-5,12.25-6.51,6.13,0,6.9-3.06,1.91-2.3,2.68-4.21.38-1.15.76-5.37-.76-6.12,3.83-9.57,14.17-7.66,14.17-7.66" transform="translate(-30.08 -22.1)"/>
	<path id="path3224" class="cls-1" d="M599.83,244.54s2.68-1.15,2.3,5.36-6.13,12.25-3.45,14.93,5.36,1.54,6.51,4.22,2.3.76-2.68,5-10,7.27-6.51,12.63,5.75,4.22,5,6.9-1.15,5.74-1.15,14.55-1.15,10.72,1.53,17.23,2.68,8.05,5.36,9.2a15.3,15.3,0,0,0,5.37,1.15" transform="translate(-30.08 -22.1)"/>
	<path id="path3226" class="cls-1" d="M563.45,379.34s1.53,4.6-4.21,2.69-7.28-3.83-8.81-1.92-.39,2.3-3.83,0-5.36,1.15-7.66-2.68.38-7.66-2.68-10-5.37-.76-5.75-4.59,0-2.3-3.83-4.6-3.83-2.68-5.36-6.89a64.48,64.48,0,0,0-6.89-12.64c-1.92-2.68-4.6-4.21-7.28-5.75s-3.83-3.83-5.36-5.74-6.13.77-8.81-1.92-.77-3.44-5-7.27-5-5.75-6.13-8-.76-5-5-2.3-2.68,3.83-8.8,3.06-9.2-1.53-11.88-3.06-6.89-2.68-8.42-1.15-1.53,3.45-.77,7.66,0,3.45,0,6.51,1.15,3.06,0,6.89-1.91,1.53-3.44,6.51a73.3,73.3,0,0,0-2.3,8.81c-1.15,5,.76,5-3.07,8.43s-9.95,9.19-9.95,9.19" transform="translate(-30.08 -22.1)"/>
	<path id="path3228" class="cls-1" d="M502.55,327.26s4.6.77,1.54-3.06-7.28-2.3-6.51-8.05,2.68-4.59,3.83-10.34,5-9.19,1.91-12.25-6.13-2.3-3.45-6.13,1.92-6.51,1.54-10.72-2.3-3.83,1.14-9.2,5-10.34,6.52-11.87,3.44-1.15,5.36-3.06,0-6.51,4.21-6.51,1.53,7.66,7.66,2.68,7.66-3.83,11.49-7.28,5.36-8.42,11.1-8.81,7.28-.76,8.81-1.53S570,222.71,570,222.71" transform="translate(-30.08 -22.1)"/>
	<path id="path3230" class="cls-1" d="M409.87,341.43s-2.29-6.89-3.83-10.34-5.36-8-3.44-11.87,3.06-1.15,4.21-8.43,2.68-11.1,6.13-14.93,2.3-1.92,5.36-4.6,2.3-2.3,5-4.6,8.42-2.29,8.42-4.21-3.44-3.06-5.36-5.74-10-6.13-12.25-9.2-5.37-5.74-9.58-5.74-10,3.45-8.81-2.68-2.29-8,6.51-9.19,7.66,1.15,11.11-3.83,2.68-2.68,5-10,5.36-9.57,4.21-14.55-4.21-3.07-2.68-9.19,2.3-5.37,2.68-9.2S421.36,189,427.11,189s10.34,1.92,12.25-.38,1.92-1.91,3.07-6.51,2.29-7.66,6.51-8.43.76.77,3.44-6.51,1.54-16.08,4.6-19.53,2.68-5.36,6.89-5.36,6.13,1.15,6.51-3.83-2.68-8-.76-11.49,6.13-11.49,6.13-11.49" transform="translate(-30.08 -22.1)"/>
	<path id="path3232" class="cls-1" d="M321,48.83s5.75,5.75,6.13,9.2,3.06,4.21,7.28,8.8,4.59,6.51,6.89,10.73,6.51,5.74,8.81,7.66,7.66,4.21,5.74,8-8.81,3.06-10.34,4.6-6.51,5.36-.76,8.8,6.89.39,11.49,5.75,10.72,7.66,8.42,12.64-3.83,8.81-4.21,12.63.77,5.75,1.53,10a25.53,25.53,0,0,1,.38,9.19c-.38,2.68,1.15,5.37,1.92,7.28s-2.68,1.92-3.45,5-6.13,6.51-2.68,8.81,5.75,0,5,4.21-1.53,3.83-1.91,8.81-3.07,4.21,2.29,10.34,6.13,12.25,10.73,10,4.21-6.13,9.57-5.36,7.28-.39,6.13,3.44-1.53,10.34-.77,12.26,7.66-3.07,8.43,1.91.76,5.36-3.45,8.81-11.87,9.58-3.83,11.11,9.19,1.91,14.17-.39a11.91,11.91,0,0,1,9.58,0" transform="translate(-30.08 -22.1)"/>
	<path id="path3234" class="cls-1" d="M361.24,198.58s-6.13,1.53-7.66,5-4.6,2.68-6.52,9.95-.76,7.28-3.06,13.41,1.15,3.06-3.83,9.19-4.21,8-9.19,9.19-2.3,1.53-11.87,1.92-13-.77-18.39,0-4.59,1.15-8.8,3.83-3.07,6.89-6.51,1.53,3.44-8-5.37-10.34-10.72,1.15-13-1.15-.38-3.06-4.59-6.51-2.3-3.07-7.28-5a17.94,17.94,0,0,1-7.66-5.74" transform="translate(-30.08 -22.1)"/>
	<path id="path3236" class="cls-1" d="M286.17,253.34s-1.91,6.52-3.06,10.73-3.11,1.66-5.36,10.34c-2.73,10.46-5.86,11.23-5.75,15.32a174.65,174.65,0,0,1-.76,18" transform="translate(-30.08 -22.1)"/>
	<path id="path3238" class="cls-1" d="M235.77,188s-2.45.23-5.13,4.06-.77,10-5.75,12.25-5.36,3.83-10.72-.38-2.3-7.28-10-7.28-11.87-4.21-12.25,1.54.38,5.74-5.75,6.89-6.12,0-8,3.45-2.68,1.14-5.74,3.06,0,5.36-3.07,4.21.39-6.89-7.66-4.21-4.21,5.36-10.34,6.51-11.49,5.75-13.4,3.06-1.15-3.44-3.07-7.66.77-8.42-4.21-10.34-3.45-6.12-8-5.36-7.66-1.53-7.28,3.45.77,10,1.15,15.7,2.68,9.58-1.15,12.26-1.15,2.29-7.66,3.06-4.21,1.53-10,2.3a75.65,75.65,0,0,1-12.26.38" transform="translate(-30.08 -22.1)"/>
	<g id="path2403">
		<path class="cls-2" d="M271.53,640.63a2.84,2.84,0,0,1-2.14-.85c-1-1.07-.77-2.48-.57-3.61.35-2.08.32-2.8-1.43-3.46-3.43-1.29-5-2-5.46-3.54a3.52,3.52,0,0,1,.85-3.18c.15-.23.33-.48.51-.78a6.86,6.86,0,0,0-2.28-.94,2,2,0,0,1-1.52-2.44,15.19,15.19,0,0,1,2.53-4.75c.46-.64,1-1.28,1.57-1.9.3-.35.71-.81,1-1.23h0c-3.07-.21-4.71-.79-5.15-3.31a2.65,2.65,0,0,0-.94-1.71,14.6,14.6,0,0,1-1.89-2.26c-.37-.53-.45-.64-3.62-1.7a11.74,11.74,0,0,0-5.24-.38c-2,.19-4.95.47-6-3.17a8.62,8.62,0,0,1-.35-3.89c0-.1,0-.2,0-.29a4.79,4.79,0,0,0-.82-.72l-1.16-.85c-2.58-1.87-4.81-3.49-4.76-5.69a3.22,3.22,0,0,1,1.57-2.65,4.36,4.36,0,0,1,3-.64l-.13-.54c-.37-1.49-.8-2.71-1.17-3.79-1.09-3.15-2-5.87,1.41-8.93l.3-.28a1.06,1.06,0,0,0,0-1.55c-.36-.34-.78-.7-1.16-1s-.88-.76-1.36-1.2a6.52,6.52,0,0,0-3.84-1.53c-1.62-.24-4-.6-4.83-3.58a1.13,1.13,0,0,0-.52-.69,12.68,12.68,0,0,0-5.77-1.09c-8.54,0-11.22-.39-15.25-3.35a9,9,0,0,0-1.95-1c-2.74-1.12-4.86-2.47-5.16-8.66a64.82,64.82,0,0,0-1.27-11.12c-.16-.88-.35-1.88-.56-3.07a28.47,28.47,0,0,1-.36-6c0-2.61.08-3.92-1.74-5.92a30.47,30.47,0,0,1-2.17-2.69c-1.44-2-1.83-2.49-6.55-3a75.71,75.71,0,0,0-8.58-.19c-4.25.08-7.92.15-10.32-1.15-3.2-1.74-3.69-5.24-4.12-8.33a17.42,17.42,0,0,0-1.51-5.82,23.37,23.37,0,0,1-1.75-4.62c-.15-.48-.32-1.09-.48-1.51a7.1,7.1,0,0,0-.73.49A7.53,7.53,0,0,0,157,500a8.67,8.67,0,0,1-5.19,5.25,15.06,15.06,0,0,0-2.89,1.53c-1.44,1-2.34,1.36-7.54,2.3-4.7.86-8.7,1.23-12.56,1.59-3,.28-5.83.54-9,1-4.65.7-13.49,3.76-19.95,6-3.73,1.28-6.41,2.21-7.68,2.5-.52.11-1,.24-1.52.37-2.5.66-6.7,1.76-8.22-2.81a15.14,15.14,0,0,0-3.35-5.08c-.43-.49-.84-1-1.17-1.38a5.72,5.72,0,0,0-.45-.53c-1.52-1.7-2.83-3.69-2.16-9.43.76-6.43,1.9-10.11,4.06-13.15a7.47,7.47,0,0,0,1.42-3.86c.12-.72.25-1.53.49-2.5.09-.32.15-.62.22-.88.58-2.49.86-3.26,4.59-8,1.9-2.41,4.66-6.92,1.92-10a10.9,10.9,0,0,1-2.22-4,7.22,7.22,0,0,0-2.42-3.62c-4-3.58-5.39-5.86-5.83-9.39-.09-.64-.12-.68-.37-1-.84-1-1.67-2.21-2.57-6.25a14.62,14.62,0,0,0-1.54-4.26c-1.24-2.31-.84-3.4,1.19-5.94,2.49-3.11,2.57-3.59,3.19-7.33l.11-.64c.71-4.26,3-12.31,6-15.8a10,10,0,0,1,2.26-2c.56-.37.86-.57,1.73-4.89a39,39,0,0,1,1.6-5.57c1.22-3.53,2-5.67-.36-11-1.65-3.79-1.94-4.87-2-5.62a.84.84,0,0,0-.08-.31c-.29-.65-1.34-2.56-1.88-3.53-4-7.22-8.35-13.45-8.4-13.51a2,2,0,0,1,.61-2.87s1.82-1.1,4.64-3.22a23.22,23.22,0,0,0,3.62-4,31.72,31.72,0,0,1,6-6.37,9.09,9.09,0,0,1,2.91-1.48c-.06-.31-.12-.66-.18-1l-.2-1.09a23,23,0,0,0-.79-3.49,1.06,1.06,0,0,0-1-.71h-.8c-.71,0-1.59,0-2.65-.08-1.45-.11-3.08-.28-4.73-.45-3.12-.32-6.35-.65-8.44-.65a27.41,27.41,0,0,0-5.82.68,2,2,0,0,1-2.41-1.43c-.25-.93-2.33-9.17-1.11-13.63a7.53,7.53,0,0,1,3.52-4.36c1.45-1,1.79-1.23,1.29-3.11a12.3,12.3,0,0,0-3.37-6.38c-.54-.6-1.14-1.29-1.83-2.17-2.92-3.75-3.8-6.46-3.37-10.34a65.56,65.56,0,0,0,0-8.53A1.93,1.93,0,0,1,62.9,282a1.74,1.74,0,0,1,1.19-.52,1,1,0,0,0,.45-.08,8.4,8.4,0,0,0,2.53-1.9c.53-.53,1-1,1.51-1.41,1.75-1.55,2.34-2.08,2-4.68-.28-2.07-.28-2.07-.84-2.67a26.23,26.23,0,0,1-3.3-4.29c-2.61-4-5.28-8.66-3.88-12.35.73-1.93,2.42-3.28,5-4a45.09,45.09,0,0,1,4.56-1c3.47-.62,4.77-.85,6.8-4.68a34.94,34.94,0,0,0,3-6.83c.31-1,.67-2.06,1.37-3.75,1.75-4.19,2.09-6.56,2.82-12.79.22-1.83.53-3.38.77-4.63.68-3.4.71-4.09-.47-5.12-2.19-1.91-2.63-2.88-2.28-4.92a8.94,8.94,0,0,0,.12-2.71c-.22-2.71-1-6.33-3.61-8.17A5.08,5.08,0,0,1,78.56,190a12.57,12.57,0,0,1,2.19-4.47c.37-.54.78-1.06,1.2-1.56l.23-.28c-.45,0-1.05-.07-1.85-.07-7.72,0-13.87-.77-16.45-2.06a5.37,5.37,0,0,0-3.29-.42,2.2,2.2,0,0,0,.14.54c1.61,4.44,1.64,12.05.84,17.28-.73,4.74-1.52,8.36-5,11.85S52,214.31,46,215l-.58.07c-4.16.48-9.44-3.15-11.08-10.83-1.15-5.4.66-7.37,2.4-9.28a11.34,11.34,0,0,0,2.52-3.73,8.45,8.45,0,0,0,.77-5.13,6.32,6.32,0,0,1,.36-3.8,7.82,7.82,0,0,1,3-3.49,4,4,0,0,0,1.46-1.44,12.16,12.16,0,0,0,.7-4.59c0-1,.08-2.1.21-3.25A11.57,11.57,0,0,1,47,165.7c.88-1.83,1.11-2.47.23-3.6l-1-1.26c-1.84-2.41-2.46-3.23-4.76-4a15.74,15.74,0,0,0-2.33-.46c-2.82-.43-7.54-1.14-7.92-7.23a39,39,0,0,0-.64-4.59c-.7-3.92-1.43-8,2-11.1a28.31,28.31,0,0,1,4.53-3.25l1-.64a1.06,1.06,0,0,0,.47-.82c.19-2.88,1.33-11.2,1.47-12.22a2,2,0,0,1,.82-1.36c.36-.25,3.73-2.44,10.16.56,5.51,2.57,5.51,2.57,13.61,5.89a45.21,45.21,0,0,1,6.56,3.31c2.2,1.31,2.2,1.31,3.51.53s2.63-1.67,3.7-2.39c3.37-2.26,6.28-4.21,9.11-1.39s6.43,4.47,7.79,3.49a69.27,69.27,0,0,0,8.91-7.42,32.84,32.84,0,0,1,3.28-2.92c2.83-2.12,5.17-3,7.16-2.54A4.73,4.73,0,0,1,118,114.7c1.24,2.17,1.66,2.9,5,2.35.88-.15,1.83-.4,2.83-.66,3.88-1,8.7-2.32,13,2,.94,1,1.8,1.86,2.63,2.73,3,3.19,5.2,5.5,8.85,6.8a15.24,15.24,0,0,0,3.14.8c2.63.4,3,1.44,4,4.53.61,1.85,3,7.91,7.15,8.26a16.48,16.48,0,0,0,3.48,0,39.33,39.33,0,0,1,6.46,0,54.81,54.81,0,0,0,7.45-.19,35.74,35.74,0,0,1,9.83.22c1.6.28,3.06.44,4.48.59,4.15.44,7.74.83,10.44,4.2a38.31,38.31,0,0,1,2.18,3.16c2.38,3.69,4,5.91,6.86,5.72a8,8,0,0,0,3.6-1c2.2-1.15,3.76-1.28,6.69,1.12.84.69,1.6,1.26,2.29,1.79,2.71,2,4.84,3.65,6.8,8.23a82.61,82.61,0,0,0,6.24,11.06l.69,1.09a1,1,0,0,0,.69.47c.37.07.82.12,1.11.15,1.27.14,3,.33,3.36,2.06.39,1.91-1.58,3-3.32,4a20.63,20.63,0,0,1-6.16,2.26,3,3,0,0,0,2,1.26c1.19.37,3.68,1.12,3,5.09a10.25,10.25,0,0,1-1.35,3.54c-.09.16-.21.37-.27.49a7.38,7.38,0,0,0,1.2,1.75,23.42,23.42,0,0,0,4,3.6c2.47,1.9,5.28,4.06,4.08,7.26a5.83,5.83,0,0,0-.4,1.77c-.15,1.4-.39,2.54-2.45,5.37-2.41,3.31-2.48,4.67-2.47,5l.23.07a8.65,8.65,0,0,1,1.56.55l1.17-.13c.7-.57,1.27-1,1.83-1.44,1-.76,1.9-1.47,3.63-3a14.86,14.86,0,0,0,2.33-2.38,34.31,34.31,0,0,1,3.13-3.45,27.62,27.62,0,0,1,3.85-3.17c1.65-1.17,2.33-1.65,2.64-3.22l.13-.62c.34-1.67.34-1.67-.59-3.31-.32-.55-.71-1.24-1.19-2.13-3.1-5.77-1.3-7.88,1.19-9.87a9.75,9.75,0,0,0,2.06-3.42,21.67,21.67,0,0,1,1.66-3.21,79.91,79.91,0,0,1,7.66-9.2l.71-.72a1,1,0,0,0,.21-.3,25.84,25.84,0,0,1,2.18-3.52,46.28,46.28,0,0,0,3.28-5.82c1.45-2.9,2.83-5.64,4.94-7.23a5.91,5.91,0,0,1,3.75-1.2c0-.17-.05-.38-.08-.62a10.46,10.46,0,0,1,1-6.16,5.71,5.71,0,0,0,.21-5.27,10.76,10.76,0,0,0-2.29-3.68c-2.05-2.36-2.57-4.13-.18-8.37.79-1.4,1.45-2.51,2-3.44,1.76-3,2.18-3.66,2.18-6,0-4,2.15-9.1,4.56-11a1.08,1.08,0,0,0,.41-.67c.07-.39.13-.9.17-1.28.23-2.18.59-5.46,3.61-7.28a19.83,19.83,0,0,1,3-1.42c1.94-.77,2.66-1.06,3.49-4.38s.65-6.27.45-9.75a77.1,77.1,0,0,1-.13-8.38c.36-7.69-.07-9-1.49-11-3.9-5.47-1.73-8.94.77-10.89,3.28-2.55,9.8-7.18,13.38-8.77a6.83,6.83,0,0,0,.62-.31v-.06A8.33,8.33,0,0,1,325,41.18,22.92,22.92,0,0,0,326.38,39c1.73-2.91,3-4.59,10.89-8.12A69.4,69.4,0,0,0,345,27.1a11.5,11.5,0,0,1,3.71-1.48,5.47,5.47,0,0,0,.79-.27c.3-1.76,1.42-2.66,3.82-3.1,2.92-.53,4.15.42,5.25,1.52a2.94,2.94,0,0,0,2.32,1.05,5.6,5.6,0,0,0,3.17-.88c2-1,4.58-2.26,9,0,1.49.74,2.83,1.33,4,1.84,3.56,1.55,6.36,2.78,8.34,6.4A20.65,20.65,0,0,1,387,36c.53,1.64.66,2,2.21,2.65.32.14.65.26,1,.39,3.47,1.35,8.23,3.19,7.28,8.84-.42,2.52.47,3.55,1.94,5.26.47.55,1,1.11,1.42,1.76.16.23.49.31,1.32.4a3.75,3.75,0,0,1,3.14,1.62c.85,1.47.24,3.34-.55,5.13-.43,1-.89,2-1.35,3-1.42,3.07-3.8,8.19-2.61,9.07a19.49,19.49,0,0,0,7.59,3,2.08,2.08,0,0,1,.86,0c1.13.22,4.6.48,5.78-1.09.67-.9.81-2.66.91-4,.14-1.67.28-3.4,1.88-4A3.07,3.07,0,0,1,421,69.1,10.22,10.22,0,0,1,422.93,72c0-.36,0-.74,0-1.1,0-1.35-.11-2.87,1.16-3.83a3.31,3.31,0,0,1,3.17-.28,47.94,47.94,0,0,1,5.82,2.33,2,2,0,0,1,.41.28c2.2,1.89,8.51,7.06,11.29,8.17a18.62,18.62,0,0,0,3.13.82c2.67.54,6.28,1.27,6.94,5.13a14.59,14.59,0,0,0,1,3.15c1.25,2.66,1.74,5.18-2.53,10a33.34,33.34,0,0,0-2.87,3.73,1.08,1.08,0,0,0,1.52,1.48l0,0c2.84-1.91,5.29-3.56,7.66-2.73a4.27,4.27,0,0,1,2.59,3,35.6,35.6,0,0,1,1,4c.5,2.57.62,2.6,1.32,2.78a1.75,1.75,0,0,0,1.46-.28c1-.49,2.83-1.4,5.28.7.91.77,2,1.6,3,2.34a1.07,1.07,0,0,0,1.23,0c1.76-1.14,4.42-.15,5.49.26a49,49,0,0,0,5,1.5c3.21.82,6.24,1.6,6.65,4.94s-.07,4.34-1.59,6.6l-.21.31a5.37,5.37,0,0,1-3.06,2.12l-.41.15a4.21,4.21,0,0,0,.08,1.1c.14.88.26.93.89,1.24,2.15,1,3.31,2.54,2.83,7.08-.2,1.87-.5,3.66-.77,5.23-.7,4.2-1.07,6.82.26,7.71a10.77,10.77,0,0,0,2.67,1.1c2.62.85,7,2.26,5.18,8.88a20.14,20.14,0,0,1-1.72,4.21,1.07,1.07,0,0,0,.91,1.58A15.84,15.84,0,0,1,508,170.2c1.88,1.88,2,1.92,2.45,2.06a12.1,12.1,0,0,1,2.21.9,3.8,3.8,0,0,0,1.82.35c2.19.08,4.3.44,8,4.1s4.14,4.69,4.89,6.81a25.68,25.68,0,0,0,1.41,3.33,7.44,7.44,0,0,1,.43,6,4.75,4.75,0,0,0-.16.62,9.55,9.55,0,0,0,3.13,1.66,61.85,61.85,0,0,0,10.74,3.09c3.13.67,5.39,1.16,6.87,2.45,2.71,2.36,2.42,5.2,2.24,7.09s-.17,1.85.73,2.13c2.43.75,5.33,2.55,8.39,4.46,3.49,2.16,7.09,4.41,10,5.14,4.61,1.15,7.06,4.19,9,6.62a16.06,16.06,0,0,0,2.41,2.61,3.14,3.14,0,0,0,.52.33l.19-.05c1.6-.39,3.42-.52,8,2.19,5,2.94,4.54,7.48,4.31,9.93,0,.22,0,.48-.06.73l.49-.13c1.28-.35,2.42-.61,3.34-.81l1.33-.31a1.08,1.08,0,0,0,.75-1.42c-.11-.28-.24-.62-.42-1a8.88,8.88,0,0,0-2.08-3.3c-1.71-1.59-.73-3-.09-4,.21-.3.49-.71.83-1.26a11.15,11.15,0,0,1,3.34-3.34c1.16-.81,1.51-1.06,1.18-3.87-.07-.6-1.69-14.72,2.21-16.28a2.68,2.68,0,0,1,3.23,1.15,16.36,16.36,0,0,1,2.14,5c.15.51.36,1.19.58,1.79a1.07,1.07,0,0,0,1.41.64,25.77,25.77,0,0,1,2.7-.88c3.51-1,4.51-1.57,4.39-3.36-.06-.77-.14-1.47-.21-2.11-.5-4.27-.31-7,6.58-8.5a11.73,11.73,0,0,1,5.23-.24l.32.06a30,30,0,0,0,3.61-2.74,60.18,60.18,0,0,0,5.32-5.23c3.62-3.89,7-7.56,11.81-5.85,3.48,1.24,4.25,4.07,4.76,5.95.56,2,.75,2.36,2.11,2.45,2.1.14,3.46.17,4.65.2a60.91,60.91,0,0,1,7.06.52h.17c9-.39,9.54,1.76,10.3,9.84l0,.5c.51,4.36,1.16,4.92,4.29,7.64.72.62,1.54,1.32,2.47,2.18a24,24,0,0,0,4.47,3.08c2.71,1.57,5.77,3.35,5.43,7.45l0,.29c-.22,2.58-.22,2.58,1.28,4.57.45.61,1,1.36,1.71,2.33,1.49,2.08,3.49,4.43,5.42,6.71,3,3.49,5.53,6.5,6.31,8.56a10.67,10.67,0,0,1,.57,3s0,.11,0,.17c.24-.05.57-.14,1-.27a10.29,10.29,0,0,0,3.8-2.92c1.42-1.48,2.88-3,4.88-2.72s3,2.28,3.32,2.94c2.57,5,1.58,7.06-1.29,9.21a10.09,10.09,0,0,0-2.55,2.46c-1.16,1.68.56,6.14,2.84,9a1.14,1.14,0,0,0,1.25.33,2.24,2.24,0,0,1,.39-.08c1.68-.19,2.61,1.12,4.85,4.92a19,19,0,0,1,3,9.06,6.82,6.82,0,0,0,2.26,5c1.87,2,4.12,2.25,6.1,2.46,1.66.18,3.38.36,4.45,1.73a4.32,4.32,0,0,1,.71,3.38,9.26,9.26,0,0,1-3.16,5.41c-1.52,1.51-1.58,1.57,0,3.31,2.91,3.13,4.68,4.79,5.25,4.93l.4-.09c1.6-.38,3.51-.61,7.66.95,1.07.4,2.09.75,3,1.07,3.59,1.23,6.42,2.2,7.4,4.59a5.24,5.24,0,0,1-.46,4.51,14.35,14.35,0,0,1-4.05,5.23,11.62,11.62,0,0,0-2.06,2.12,11,11,0,0,0-1.36,2.44,5.59,5.59,0,0,1-4.2,3.85,16.42,16.42,0,0,1-2.68.38c-.35,0-.82.07-1.16.12a3.29,3.29,0,0,0,.09.32c.15.52.63.77,1.68,1.22a4.78,4.78,0,0,1,3.1,2.76c.55,1.77-.41,3.63-1.3,5.06s-1.67,2.55-2.28,3.42c-1.81,2.6-2,2.81-1.51,6a15.17,15.17,0,0,1,.18,3,1.11,1.11,0,0,0,.42.91l.67.51,1.3,1a26.17,26.17,0,0,1,3.73,3.56c1.73,1.9,2.44,2.69,5.79,2.69a18.17,18.17,0,0,0,3.86-.45c1.36-.27,2.75-.56,3.86.49,1.28,1.2,1.07,3.12.56,6.69a31.89,31.89,0,0,0-.83,7.92,1.07,1.07,0,0,0,1.24,1l.5-.08c2.09-.35,6-1,7.86,3.9,1.89,5,1.82,6.52,1.47,9.67-.07.66-.16,1.4-.23,2.31,0,.61-.1,1.18-.16,1.73-.37,3.73-.51,5.13,3.18,7.1a11.73,11.73,0,0,0,4.11,1.38c2.39.38,3.56,1.1,4.64,4.61a33.2,33.2,0,0,0,1.21,3.22,13.23,13.23,0,0,1,1.06,9.24c-.72,3.61-1.37,4.56-2.45,5.95a16.87,16.87,0,0,0-2.16,3.44,14,14,0,0,1-4.49,5.27c-1.19.92-1.51,1.2-1.61,2.18a4.79,4.79,0,0,1-.58,1.93,1.08,1.08,0,0,0,.2,1.29c.84.79,1.81,1.67,2.32,2.13,7.73,7,7.72,12.27,7.7,18.41V466c0,5.56-.52,9.51-3,10.72-1,.46-2.56.67-4.65-1-1.21-1-2.24-1.9-3.15-2.73-3.43-3.13-4.47-4.08-7.88-1.95l-1,.64c-8.7,5.44-12,7.48-16.64,2.79a10.93,10.93,0,0,1-2.34-3c-.23-.46-.45-.89-4.76-3.76-6.07-4-8.69-2.33-11.47-.53a9.65,9.65,0,0,1-4.73,2c-.85.05-1.54.06-2.11.07-.36,0-.75,0-1,0-.11.34-.26.91-.4,1.47s-.33,1.3-.57,2.16c-1.61,5.78-5.59,5.19-8.8,4.73-.81-.12-1.64-.24-2.54-.31A23.41,23.41,0,0,0,715,478c-1.68.33-3.77.75-6.64,1.15a23.4,23.4,0,0,1-7.13,0l-.63-.08c-.07.13-.16.34-.29.66l-.31.77c-1.3,3.29-2.08,5.28-5.92,7a12.86,12.86,0,0,1-5.25.85c-1.9,0-3.54.05-5.16,1.18-1.08.76-1.07.9-1,1.46a5.59,5.59,0,0,1-1.57,4.52c-2.28,2.6-3.9,2.59-5.95,2.29a10.16,10.16,0,0,0-2.44-.13c-1.75.13-2.71,1.36-3.65,2.55-.79,1-1.62,2.05-3,2.18a2.93,2.93,0,0,1-2.23-.77c-4.32-3.76-4.65-5.45-3.48-8.63a12.82,12.82,0,0,0,.82-3,1.07,1.07,0,0,0-.3-.88c-4.26-4.51-3.13-8.6-2.21-11.93s1.76-6.37-2.19-10.64c-1-.58-1.21-.38-2.32.69-1.27,1.23-3.64,3.53-7.73,1.35-6.8-3.63-11.33-4.32-12.81-3.4l-.21.14c0,.05,0,.1,0,.15.16,2.15-.52,3.91-4.32,6.05-8.65,4.86-14.25,2.78-17.43.18a26.31,26.31,0,0,0-9.3-4.47l-1.18-.37a3.41,3.41,0,0,1-.9-.43,1,1,0,0,0-.94-.06l-1.94.81a20.29,20.29,0,0,0-5.43,3.52c-2.12,1.78-4.77,4-8.54.56-1.1-1-2.14-2-3.11-2.87a45.19,45.19,0,0,0-5.33-4.6,21.94,21.94,0,0,0-2.13-.83,55,55,0,0,1-6-2.5l-.33-.15c-2.52,1.81-4.58-.36-7.71-4-6.07-7.14-10.58-10.09-13.77-9a13.12,13.12,0,0,0-3.93,2.67c-2.37,2-5.32,4.57-9.69,3.69a29.91,29.91,0,0,1-7.59-3.07c-2.42-1.26-4.93-2.55-6.25-2.16l-.75.23c-3.1.91-6.62,2-7.63,4.22-1.77,4-4.93,6.13-8.57,8.31a32,32,0,0,0-5,4.12,29.79,29.79,0,0,1-5.47,4.43c-2.79,1.55-5.94,3.31-6.46,5.1-1.12,3.92-4.05,6.58-8.47,7.69-2.62.65-6.15,1.88-9.27,3-2,.71-4,1.38-5.46,1.83a8.61,8.61,0,0,1-4.15.14,4.57,4.57,0,0,0-.91-.1h0s-.4.22-1.08,1.79a17.1,17.1,0,0,0-1.07,4.46c-.45,3.09-1,6.59-6,8.48a14.2,14.2,0,0,1-6.35.94c-1.4-.08-1.46-.08-2.29,1.22a34.59,34.59,0,0,1-2.18,3c-2.22,2.78-2.07,2.91-1.14,3.73a12.32,12.32,0,0,0,3.07,2,26,26,0,0,1,8.16,6.3c1.58,1.68,3.15,3.1,4.54,4.36,3.79,3.43,7.37,6.68,4.58,11a10.56,10.56,0,0,1-3.92,3.61l-.1.06.27.41c.53.75.91,1.36,1.25,1.9,1.2,1.92,1.75,2.79,8.3,7.63a51.84,51.84,0,0,0,8.62,5c2.78,1.36,4.61,2.25,5.12,4.13a3.79,3.79,0,0,1-.67,3.17,14.37,14.37,0,0,1-2.53,2.88,2.85,2.85,0,0,0-1.21,2.44,27.17,27.17,0,0,0,1.57,8.25c.86,2.88,1.54,5.16.93,7a2.67,2.67,0,0,1-.32.63,39.36,39.36,0,0,0-2.56,4.4,19.06,19.06,0,0,1-4.28,5.78,16.19,16.19,0,0,1-4.1,3c-1.54.83-2,1.08-2.36,4.35a38.81,38.81,0,0,0-.15,5.57c.08,3.27.16,6.37-3.09,8.18-4.62,2.56-5.79,2.72-7.95,2.5a12,12,0,0,0-2.49,0l-1.4.13c-3.47.31-5.22.48-7.82-1.69s-3.62-2.64-4.12-2.69a1,1,0,0,0-.09.24l-.39,1.36c-1,3.49-2.23,7.85-6.34,7.85-3.83,0-6.81-3.69-7.13-4.11a1,1,0,0,1-.12-.17c-.31-.2-1.46-.54-3.95-.19a10.19,10.19,0,0,0-2.17.54c4.64,1,6.88,2.19,7.56,4.08a3.5,3.5,0,0,1-.82,3.59,11.92,11.92,0,0,0-1.38,2.5c-1.16,2.5-3.1,6.7-8.13,5.15a10.11,10.11,0,0,1-4.76-3.46c.13.77.31,1.55.46,2.23.63,2.79,1.13,5-.44,6.22a2.94,2.94,0,0,1-3.35.07c-1.91-1-3.11-2.94-4.17-4.69a17.52,17.52,0,0,0-1.24-1.88,5.08,5.08,0,0,0-.55.71,27.26,27.26,0,0,0-2.4,4.61c-.65,1.54-1.27,3-2.92,3h0c-1.8,0-2.52-1.82-3.35-3.91a35,35,0,0,1-1.78-7.14c-.57-3.21-1.11-6.24-2.8-7.59-3.81-3-9.3-5.06-11-3.2l-.18.21a19,19,0,0,1,3.57,2,15,15,0,0,0,4.18,1.9c1.61.53,3.27,1.08,3.45,2.81s-1.63,2.88-2.62,3.45a13.55,13.55,0,0,0-2.82,2.18c-1.54,1.49-2.74,2.36-6.29,1.77a8.69,8.69,0,0,1-4.59-2.11c-.07.22-.14.46-.19.63a4.23,4.23,0,0,1-2.25,3.18c-1.56.63-3.25-.17-4.39-.84a19.71,19.71,0,0,1-3.07-2.15c-.89-.74-1.23-1-5.14-1.67a28.07,28.07,0,0,0-5.92-.29c-2.76.09-5.62.18-7.35-2.94a7.49,7.49,0,0,1-1.22-3.75l-1.41-1c-1,.29-2.22.08-4.08-.59a6.86,6.86,0,0,1-3.82-3.09l-1.26-.46a4.68,4.68,0,0,0-3.19,2.56,6.9,6.9,0,0,1-3.39,3.1l-.35.19a1.32,1.32,0,0,0,.08.19c1.09,2.47,2.46,5.54.79,7.61-1.53,1.88-4.34,1.28-5.26,1.08a22.32,22.32,0,0,1-4.55-1.46c-1.1-.48-1.11-.48-2.11-.1a18.33,18.33,0,0,0-1.8.82c-1.51.74-3.07,1.52-4.51.52s-1.27-3-1.19-3.79.25-1.81.4-2.61c.11-.59.25-1.37.31-1.94l-.05,0a3.25,3.25,0,0,0-2.11,1.38c-.91,1.14-2,2.21-4.78,1.6a17.66,17.66,0,0,1-4.4-1.89c-.37-.2-.85-.46-1.26-.66v0c-.41,2.42-1.19,4.68-6.58,7.85a14,14,0,0,0-5.26,5.74c-1.1,1.9-2.24,3.87-4.79,4.15ZM266.28,628q.86.39,2.52,1c3.72,1.39,4.27,4.09,4.18,6.12.11-.2.24-.41.37-.65a17.87,17.87,0,0,1,6.69-7.18c4.23-2.49,4.43-3.69,4.67-5.07a11,11,0,0,1,.37-1.61,3,3,0,0,1,1.71-1.87c1.58-.62,3.19.25,5,1.27a14.56,14.56,0,0,0,3.35,1.5,3,3,0,0,0,.55.08,3.2,3.2,0,0,0,.22-.27,7.23,7.23,0,0,1,4.2-2.75c1.74-.48,3.09-.28,4,.58,1.53,1.41,1.12,3.6.7,5.92-.1.5-.19,1-.26,1.49.6-.29,1.27-.62,2-.9a5.66,5.66,0,0,1,5.1.18,18.13,18.13,0,0,0,3.8,1.22,5.75,5.75,0,0,0,1.18.15,18,18,0,0,0-1.21-3.31c-1.62-3.65,1-5,2.11-5.56a3.06,3.06,0,0,0,1.63-1.33c1.69-3.38,4.28-4.19,6.35-4.84l.74-.24c2.76-.91,3.75,1.35,4.08,2.1a3,3,0,0,0,2.05,2l.89.3a1.07,1.07,0,0,0,1.17-.36l.45-.58c.62-.81,1.46-1.9,2.74-3.29.93-1,3.12-3.37,5.15-2,2.38,1.65.25,6.61-.78,8.67-.37.73-.71,1.3-1,1.75-.67,1.1-.67,1.1.21,2.68.49.88.91,1,3.72.89a31.66,31.66,0,0,1,6.71.33c4.59.77,5.48,1.25,7,2.55a16.54,16.54,0,0,0,2.53,1.77c.28.16.51.28.68.36,0-.12.06-.23.09-.32a5.83,5.83,0,0,1,1.78-3.21,3.16,3.16,0,0,1,4.58.35,4.82,4.82,0,0,0,2.93,1.46c1.82.3,1.89.23,2.86-.7.29-.28.62-.6,1-.95a1.09,1.09,0,0,0-.27-1.83,14,14,0,0,1-2.54-1.45,15.66,15.66,0,0,0-3-1.69c-1.18-.54-2.41-1.09-2.71-2.53s.64-2.68,1.72-3.91c4-4.47,12-.81,16.45,2.73,2.87,2.3,3.56,6.23,4.23,10,.17.9.33,1.82.52,2.73a1.08,1.08,0,0,0,2,.33c.23-.38.47-.76.73-1.15.44-.67,1.79-2.7,3.89-2.7h.07c2.17.05,3.39,2.07,4.57,4l.53.87c-.51-2.32-1-4.86-.43-6.83a3.08,3.08,0,0,1,2.26-2.42c1.66-.27,2.6,1.06,3.6,2.47s2.29,3.25,4.05,3.79c1.38.42,1.85.2,3.33-3,.34-.73.68-1.48,1.09-2.17a1.08,1.08,0,0,0-.54-1.58,32.11,32.11,0,0,0-5.16-1.21,2.94,2.94,0,0,1-2.67-2.91c0-2.45,2.9-4.51,7.16-5.12,5.45-.78,7.29,1,7.88,2,.62.74,2.36,2.45,3.88,2.45,1.09,0,1.83-2.63,2.49-5,.13-.47.27-.94.41-1.41a4,4,0,0,1,2.67-2.93c2.56-.78,5.32,1.28,7.93,3.45,1.29,1.08,1.63,1.08,4.9.78l1.43-.12a15.87,15.87,0,0,1,3.22,0c1.15.11,1.67.17,5.61-2,1-.57,1.11-1.38,1-4.58a42.8,42.8,0,0,1,.17-6.11c.56-5,2-6.14,4.43-7.43a12.06,12.06,0,0,0,3.18-2.28,15.33,15.33,0,0,0,3.55-4.79,40.47,40.47,0,0,1,2.5-4.34,1.2,1.2,0,0,0,.18-.66,25.2,25.2,0,0,0-1-4.08,30.48,30.48,0,0,1-1.74-9.6s0-.09,0-.13a6.72,6.72,0,0,1,2.5-5.06,12.45,12.45,0,0,0,1.1-1.09,1.08,1.08,0,0,0-.31-1.66c-.55-.29-1.19-.61-1.77-.89a55.35,55.35,0,0,1-9.24-5.42c-6.88-5.09-7.78-6.28-9.31-8.72-.3-.49-.65-1-1.14-1.74a4.85,4.85,0,0,1-1.17-3.7,4,4,0,0,1,2.26-2.51,6.81,6.81,0,0,0,2.57-2.31c.83-1.3.24-2.19-3.9-5.94-1.44-1.3-3.07-2.78-4.76-4.57a21.88,21.88,0,0,0-7.06-5.48,16.31,16.31,0,0,1-3.92-2.55c-3.91-3.47-1.26-6.79.67-9.22a28,28,0,0,0,1.93-2.61c1.94-3,3.73-3.18,5.89-3.07a10.2,10.2,0,0,0,4.73-.69c2.81-1.05,3-2.47,3.43-5.31a20.17,20.17,0,0,1,1.36-5.45c1.71-4,3.6-4.51,6.31-4.07a4.84,4.84,0,0,0,2.36,0c1.4-.42,3.29-1.08,5.29-1.78,3.19-1.11,6.81-2.36,9.61-3.06,3-.76,4.87-2.37,5.6-4.91,1-3.39,4.72-5.47,8.35-7.49a26.5,26.5,0,0,0,4.67-3.84,34.3,34.3,0,0,1,5.65-4.65c3.78-2.26,5.78-3.81,7-6.5,1.76-4,6.41-5.33,10.14-6.44l.74-.22c2.87-.86,6,.74,9.24,2.43a26.55,26.55,0,0,0,6.54,2.71c2.33.46,3.91-.76,6.3-2.81a15.93,15.93,0,0,1,5.27-3.42c6.47-2.17,13.06,4.33,18.08,10.23,1,1.22,1.76,2,2.26,2.5a1.12,1.12,0,0,0,1.16.28,4.12,4.12,0,0,1,3.35.43,49.26,49.26,0,0,0,5.59,2.31,25.14,25.14,0,0,1,2.56,1c1.28.64,3,2.24,6.27,5.25,1,.89,2,1.85,3.07,2.84s1.19,1.08,3.28-.67a24.36,24.36,0,0,1,6.45-4.14c4.6-1.94,5.19-2.19,6.32-1.38a2.09,2.09,0,0,1,.79,1.12l.57.18a30.05,30.05,0,0,1,10.66,5.19c3.27,2.68,7.5,2.49,12.94-.56,2.36-1.33,2.33-1.84,2.29-2.28a3.82,3.82,0,0,1,2.07-4c4.07-2.55,11.39.37,16.82,3.26,1.51.81,1.84.49,3.05-.69s3.52-3.42,7.3-1.17a3.13,3.13,0,0,1,.63.51c5.59,6,4.28,10.72,3.23,14.54-.91,3.29-1.52,5.51,1.72,8.59a3.12,3.12,0,0,1,1,2.46,17,17,0,0,1-1.16,5.13c-.41,1.12-.55,1.49.75,2.76l1.58-.06a8.42,8.42,0,0,1,6-3.41,14.38,14.38,0,0,1,3.32.16c1.28.18,1.35.2,2.37-1a1.71,1.71,0,0,0,.59-1.62c-.1-1.49,0-3.1,2.73-5a12.14,12.14,0,0,1,7.39-1.91,9.55,9.55,0,0,0,3.68-.5c2.35-1,2.63-1.77,3.83-4.8l.31-.79c1.22-3,2.65-3.41,5.18-3.06a19.44,19.44,0,0,0,6,0c2.76-.4,4.79-.8,6.42-1.12a27.16,27.16,0,0,1,8.46-.75c1,.08,2,.22,2.81.34,3.29.48,3.7.54,4.36-1.85.23-.82.41-1.5.55-2.07.92-3.6,1.52-4.45,5.23-4.51.53,0,1.18,0,2-.06a6.83,6.83,0,0,0,2.77-1.34c3-2,7.6-4.93,15.85.56,4.77,3.17,5.43,3.93,6.12,5.28a7.19,7.19,0,0,0,1.59,2c2.27,2.27,2.66,2.31,11.7-3.35l1-.64c6-3.74,9.25-.77,12.69,2.38.91.83,1.85,1.69,3,2.57a3.94,3.94,0,0,0,.46.33c.27-.59.73-2.27.73-6.92v-.86c0-5.82,0-9.66-6.37-15.43-3.9-3.5-5-4.58-4.91-6.11a2.64,2.64,0,0,1,1.32-2c.29-.21.3-.21.34-.59.28-2.74,1.8-3.91,3.15-4.95a10,10,0,0,0,3.35-3.89,21.71,21.71,0,0,1,2.59-4.13c.76-1,1.11-1.41,1.68-4.26a9.47,9.47,0,0,0-.82-6.9,35.73,35.73,0,0,1-1.35-3.6,5.13,5.13,0,0,0-.71-1.7c-.07,0-.44-.08-.74-.13a15.38,15.38,0,0,1-5.36-1.8c-6.06-3.24-5.68-7-5.28-11,.06-.52.11-1.06.15-1.63.08-1,.17-1.76.25-2.45.29-2.61.39-3.49-1.24-7.81-.67-1.75-1.32-1.73-3.47-1.38-1.48.25-3.52.58-5-.95-1.72-1.77-1.86-5.26-.49-12.45,0-.23.09-.65.15-1.14a1.07,1.07,0,0,0-1.24-1.19,20.74,20.74,0,0,1-3.25.26c-5.13,0-6.81-1.86-8.76-4a22.26,22.26,0,0,0-3.2-3.07l-1.28-1c-2.07-1.57-2.85-2.16-2.7-4.29a10.82,10.82,0,0,0-.11-2.71c-.64-4.51,0-5.71,2.19-8.83.58-.84,1.31-1.87,2.17-3.25a7,7,0,0,0,.82-1.65c-.22-.12-.56-.27-.8-.37a6,6,0,0,1-3.95-3.75,4.58,4.58,0,0,1,.29-3.85c1-1.46,2.75-1.6,4.3-1.73a12,12,0,0,0,2-.27c.91-.23,1-.35,1.51-1.58a15.18,15.18,0,0,1,1.82-3.23,15.44,15.44,0,0,1,2.66-2.76,10.38,10.38,0,0,0,3.08-4,2,2,0,0,0,.33-1.22c-.29-.7-2.9-1.59-5-2.31-1-.34-2-.7-3.14-1.11-3.36-1.27-4.5-1-5.34-.81-2.75.65-4.08-.19-9.49-6-4.26-4.57-1.55-7.27.06-8.87a5.63,5.63,0,0,0,2-3.14,2.19,2.19,0,0,0,0-.33,13.57,13.57,0,0,0-1.64-.24c-2.28-.24-5.72-.6-8.61-3.72a10.68,10.68,0,0,1-3.31-7.38,15.39,15.39,0,0,0-2.5-7.4c-.49-.84-.88-1.46-1.18-1.93l-.21.07a3.33,3.33,0,0,1-3-1c-3.29-2.88-8-11-4.77-15.6a14.06,14.06,0,0,1,3.44-3.4c1.48-1.11,1.64-1.22.13-4.19a4.72,4.72,0,0,0-.37-.61,17.29,17.29,0,0,0-1.38,1.35c-1.39,1.44-3.11,3.23-5.51,4-1.67.51-3.4.87-4.72,0a4.09,4.09,0,0,1-1.48-3.36,6.84,6.84,0,0,0-.34-1.89c-.53-1.41-3.22-4.58-5.6-7.38-2-2.34-4-4.76-5.63-7-.67-.93-1.22-1.66-1.66-2.25-2.25-3-2.39-3.48-2.07-7.31l0-.28c.12-1.42-.6-2-3.46-3.66a27.89,27.89,0,0,1-5.16-3.59c-.9-.83-1.69-1.51-2.38-2.11-3.41-3-5-4.29-5.66-10.24l0-.55c-.27-2.9-.49-5.18-1.07-5.78s-3.58-.51-5.23-.43l-.53,0a55.78,55.78,0,0,0-6.81-.51c-1.24,0-2.64-.06-4.83-.21-4.3-.28-5.14-3.35-5.69-5.38-.49-1.78-.81-2.73-2.25-3.25-2.2-.78-4.1,1.11-7.54,4.81a63.21,63.21,0,0,1-5.69,5.59c-4,3.29-5,4-7.25,3.53a7.85,7.85,0,0,0-3.6.21c-3.86.86-3.85,1-3.48,4.14.08.69.17,1.44.23,2.29.37,5.29-4.23,6.61-7.27,7.48a16.11,16.11,0,0,0-3,1.07,3.55,3.55,0,0,1-3.18.31c-2-.79-2.67-3.13-3.43-5.6,0-.05,0-.11-.05-.16a54.2,54.2,0,0,0,.27,8.66c.57,4.81-.83,6.19-2.86,7.61a7.08,7.08,0,0,0-2.25,2.21c-.24.38-.45.69-.63,1a15.09,15.09,0,0,1,2.26,3.83c1,2.25,1.47,4.06.69,5.6-.87,1.71-2.66,2.11-5.15,2.66-.92.21-2,.44-3.14.77-1.38.38-3.14.69-4.43-.39s-1.19-2.89-1.05-4.44c.25-2.7.22-4.58-2.37-6.12-3.55-2.1-4.46-1.88-5-1.74a4.25,4.25,0,0,1-4.06-1,18.51,18.51,0,0,1-3.12-3.29c-1.77-2.18-3.59-4.43-6.9-5.26-3.55-.89-7.42-3.3-11.17-5.63-2.84-1.76-5.52-3.43-7.45-4-4-1.24-3.74-4.44-3.55-6.35.18-1.76.22-2.72-.88-3.68-.7-.61-2.73-1-5.08-1.55a66.46,66.46,0,0,1-11.39-3.29c-5-2-6.32-3.75-5.31-7.13a3.45,3.45,0,0,0-.18-3.09,32.19,32.19,0,0,1-1.6-3.78c-.55-1.55-.75-2.13-4-5.33-2.84-2.84-4-2.88-5.27-2.92a7.68,7.68,0,0,1-3.47-.77,8.79,8.79,0,0,0-1.6-.66c-1.32-.41-1.86-.81-4.1-3.05a12.39,12.39,0,0,0-10.85-3.15c-1.06.18-2.84.48-3.74-1s0-2.66,1-4a19.24,19.24,0,0,0,3.12-6.07c.81-2.92.16-3.12-2.55-4a14,14,0,0,1-3.67-1.58c-3.55-2.37-2.83-6.7-2-11.7.27-1.59.55-3.24.73-5,.28-2.64-.07-2.81-.6-3.06a5,5,0,0,1-3.09-4.18c-.65-3.91,1.06-5,3-5.7.65-.22.85-.31,1-.55l.22-.32c1.2-1.8,1.2-1.8.95-3.88-.08-.57-1.18-.91-3.68-1.56a47.74,47.74,0,0,1-5.41-1.63c-.41-.15-.76-.26-1-.34a2,2,0,0,1-.62,1.79,2,2,0,0,1-2.42.22,75,75,0,0,1-6.89-5,2.31,2.31,0,0,0-.49-.35l-.42.2a5.69,5.69,0,0,1-4.2.57c-3.29-.83-3.79-3.41-4.28-5.9a32.3,32.3,0,0,0-.85-3.6,2.26,2.26,0,0,0-.17-.42c-.79.08-2.8,1.43-4,2.26a32.74,32.74,0,0,1-4.53,2.72c-2.88,1.33-4.28.22-4.85-.55C442,103.57,449.43,95,450.28,94c3-3.4,2.6-4.23,1.79-5.9a10.39,10.39,0,0,1-1.17-3.71c-.1-1.15-.71-1.48-3.81-2.11a22.05,22.05,0,0,1-3.83-1c-3.6-1.45-10.42-7.16-12.11-8.6a.78.78,0,0,0-.22-.15c-.45-.21-1.33-.61-2.51-1.07a1.1,1.1,0,0,0-1.51.94,6.21,6.21,0,0,1-1.38,3.88,3.46,3.46,0,0,1-3,1.45,2.63,2.63,0,0,1-1.66-1L419,77a6.88,6.88,0,0,1-.8,1.42c-2.65,3.53-8.06,2.9-9.48,2.66-2.66.15-8-2-10.36-3.75-3.77-2.82-1.15-8.48,1.39-14,.45-1,.9-1.93,1.32-2.89.22-.52.37-.91.46-1.19a5.22,5.22,0,0,1-4-2c-.37-.51-.77-1-1.2-1.48-1.6-1.85-3.58-4.16-2.85-8.53.35-2.12-.76-2.89-4.78-4.45l-1-.4c-3.29-1.32-3.89-3.17-4.52-5.14a17.88,17.88,0,0,0-1.31-3.17c-1.31-2.42-3.13-3.21-6.42-4.64-1.22-.54-2.61-1.14-4.19-1.93-2.69-1.34-3.73-.82-5.47,0a9.46,9.46,0,0,1-5.29,1.27,6.76,6.76,0,0,1-4.82-2.21c-.53-.53-.6-.6-1.69-.41l-.65.15c-.35,1.63-1.42,2.55-3.63,3.15A7.84,7.84,0,0,0,347,30.55a75.38,75.38,0,0,1-8.08,4c-7.11,3.18-7.81,4.36-9.09,6.51a28,28,0,0,1-1.6,2.48,4.4,4.4,0,0,0-1.14,2.75c-.09,1.65-.59,2.75-3,3.82-3.09,1.37-9.2,5.66-12.55,8.27-1.6,1.24-2.07,2.47,0,5.4,2.21,3.09,2.6,5.49,2.22,13.48a72.89,72.89,0,0,0,.14,8c.2,3.64.4,7.09-.57,10.94-1.23,4.93-3.13,6-5.89,7.12a16.17,16.17,0,0,0-2.42,1.14c-1.23.74-1.47,2.17-1.7,4.28-.18,1.7-.39,3.64-2,4.61-1,.63-3.1,4.6-3.1,7.92s-.86,4.83-2.75,8c-.54.9-1.19,2-1.95,3.35-1.41,2.5-1.32,2.6-.29,3.78a14.73,14.73,0,0,1,3,4.9,9.62,9.62,0,0,1-.27,8.25,6.56,6.56,0,0,0-.73,4c.28,2,.27,3.4-.65,4.39a3.25,3.25,0,0,1-2.82.83,2.19,2.19,0,0,0-1.76.37c-1.36,1-2.47,3.25-3.77,5.82a50.09,50.09,0,0,1-3.56,6.31,18.27,18.27,0,0,0-1.89,3c-.29.68-.47.86-1.67,2.06a75.16,75.16,0,0,0-7.16,8.58,19.61,19.61,0,0,0-1.34,2.64,12.44,12.44,0,0,1-3.15,4.85c-1.59,1.28-2,1.6-.23,4.9.46.86.84,1.52,1.15,2.06,1.53,2.7,1.61,3.21,1,6.08l-.13.61c-.62,3.12-2.38,4.37-4.24,5.69a23.73,23.73,0,0,0-3.34,2.74,32.74,32.74,0,0,0-2.83,3.11,18.66,18.66,0,0,1-2.82,2.9c-1.82,1.6-2.84,2.38-3.83,3.14-.63.5-1.27,1-2.13,1.71-1.15.95-2.57,2.14-4.51.65a3.08,3.08,0,0,0-1.33-.62,4.1,4.1,0,0,1-3-2.53c-.76-2.11.18-4.88,3-8.73,1.57-2.17,1.62-2.67,1.69-3.42a10.17,10.17,0,0,1,.48-2.32,1.08,1.08,0,0,0-.21-1.09,20.4,20.4,0,0,0-2.4-2,27.54,27.54,0,0,1-4.68-4.24c-2.37-2.9-2.66-4.41-1.3-6.77a6.2,6.2,0,0,0,.88-2.27,4,4,0,0,0,.07-.46l-.26-.08a6.94,6.94,0,0,1-4.37-3.25c-.67-1.12-1.34-2.43-.76-3.77s2-1.65,3.29-1.94c.55-.12,1.19-.25,1.91-.47a1.06,1.06,0,0,0,.59-1.65l-.22-.32c-.22-.37-.56-.91-1-1.57a85.25,85.25,0,0,1-6.55-11.63c-1.54-3.61-3-4.68-5.53-6.62-.73-.56-1.53-1.16-2.41-1.88-1.19-1-1.57-1-1.58-1a7.47,7.47,0,0,0-.73.34,11.74,11.74,0,0,1-5.18,1.5c-5.4.34-8.22-4-10.49-7.56-.67-1-1.3-2-2-2.82-1.58-2-3.74-2.3-7.74-2.73-1.41-.15-3-.32-4.74-.62a32.19,32.19,0,0,0-8.84-.17,58.09,58.09,0,0,1-8,.19,34.75,34.75,0,0,0-5.89,0,20.18,20.18,0,0,1-4.17,0c-6.46-.54-9.58-7.86-10.62-11-.24-.73-.47-1.43-.63-1.81l-.19,0a19,19,0,0,1-3.88-1c-4.55-1.63-7.26-4.5-10.41-7.82-.8-.85-1.63-1.73-2.55-2.65-2.48-2.48-5.1-2-9.13-.93-1,.28-2.13.57-3.2.75-5.62.94-7.38-1.3-9.1-4.32-.24-.41-.43-.45-.52-.47-.58-.12-1.92.3-4,1.82a30.87,30.87,0,0,0-2.9,2.59,73.32,73.32,0,0,1-9.36,7.81c-3.64,2.6-9.13-.1-13-3.92-.4-.4-.92-.22-4,1.88-1.11.75-2.36,1.59-3.87,2.5-3.37,2-5.15,1-7.62-.52a41.34,41.34,0,0,0-6-3.05c-8.19-3.35-8.19-3.35-13.79-6a10.83,10.83,0,0,0-4.55-1.19,1.06,1.06,0,0,0-1,.93c-.54,4.05-1.19,9.23-1.19,10.29,0,2.18-1.73,3.23-3.4,4.24a23.36,23.36,0,0,0-3.92,2.81c-1.74,1.56-1.46,3.61-.78,7.42a43,43,0,0,1,.69,5c.18,2.76,1.44,3,4.52,3.52a17.52,17.52,0,0,1,3,.63c3.47,1.16,4.74,2.83,6.67,5.37l.94,1.23c2.44,3.13,1.15,5.82.22,7.78a8.13,8.13,0,0,0-.92,2.55c-.11,1-.15,2-.19,3a15,15,0,0,1-1.12,6.21,7.81,7.81,0,0,1-2.7,2.9,4.11,4.11,0,0,0-1.7,1.81,2.59,2.59,0,0,0-.07,1.66,12.24,12.24,0,0,1-1,7.18,15.07,15.07,0,0,1-3.28,4.95c-1.48,1.62-2.15,2.36-1.43,5.75,1.32,6.24,5.08,7.87,6.7,7.69l.58-.07c5.74-.67,5.85-.69,8.23-3.07s3.15-4.84,3.88-9.63.68-11.68-.64-15.3c-1-2.68.12-4.19.86-4.85,2.05-1.83,5.82-1.23,7.84-.22,1.63.82,6.8,1.64,14.66,1.64,3.3,0,5.51.36,6.34,2.13s-.5,3.4-1.58,4.7c-.31.37-.63.75-.91,1.15a9.71,9.71,0,0,0-1.71,3.24,1.13,1.13,0,0,0,.5,1.38c3,2.16,4.85,6,5.28,11.09a13,13,0,0,1-.17,3.73c0,.09,0,.17,0,.25a10,10,0,0,0,1,1c3,2.64,2.44,5.55,1.77,8.91-.25,1.24-.53,2.64-.73,4.31-.74,6.37-1.13,9.14-3.1,13.87-.64,1.53-.95,2.5-1.25,3.43a38.59,38.59,0,0,1-3.27,7.48c-2.94,5.55-5.75,6.05-9.64,6.75-1.21.21-2.58.46-4.19.9-1.3.37-2.09.89-2.35,1.57-.8,2.11,2.32,6.94,3.5,8.75a23,23,0,0,0,2.84,3.72c1.26,1.34,1.51,2,1.91,4.88.64,4.72-1.37,6.5-3.3,8.21-.42.38-.88.78-1.35,1.25A14.21,14.21,0,0,1,67,284.56a1.07,1.07,0,0,0-.52,1,54,54,0,0,1-.12,7.05c-.31,2.78.29,4.52,2.56,7.43.6.78,1.14,1.38,1.66,2,1.68,1.89,3,3.38,4.25,8s-1.26,6.31-2.9,7.44c-1,.72-1.67,1.18-1.92,2.12-.56,2.06-.06,5.87.49,8.72a1.06,1.06,0,0,0,1.2.86,30.23,30.23,0,0,1,3.79-.26c2.3,0,5.63.34,8.85.67,1.62.17,3.22.33,4.64.45.89.07,1.65.07,2.31.06h.09c4.27,0,5.36,1.29,6.44,7.51l.19,1.08c.46,2.58.61,3.44-.08,4.41a2.74,2.74,0,0,1-2,1,4.54,4.54,0,0,0-2.25,1,28,28,0,0,0-5.24,5.6,26,26,0,0,1-4.37,4.75c-.88.66-1.67,1.23-2.34,1.7a1.06,1.06,0,0,0-.27,1.47c1.68,2.54,4.33,6.69,6.87,11.3,2.18,4,2.32,4.32,2.42,5.21,0,.19.08.78,1.73,4.59,3,6.78,1.8,10.09.48,13.92a36.38,36.38,0,0,0-1.46,5c-1,5.22-1.67,6.28-3.45,7.45a6.26,6.26,0,0,0-1.45,1.26c-2.06,2.35-4.29,9-5.09,13.82l-.1.63c-.7,4.25-1,5.4-4,9.18l-.44.56L76.88,433a19,19,0,0,1,1.7,4.87c.75,3.39,1.33,4.07,1.71,4.52a5,5,0,0,1,1.28,3.07c.28,2.24,1,3.7,4.54,6.91a11,11,0,0,1,3.53,5.27,6.82,6.82,0,0,0,1.45,2.67c3.39,3.87,2.74,9.39-1.78,15.15-3.33,4.24-3.42,4.62-3.85,6.45-.07.28-.14.59-.23.94-.2.81-.31,1.5-.42,2.17a11.4,11.4,0,0,1-2.11,5.55c-1.72,2.4-2.68,5.67-3.35,11.29-.52,4.41.3,5.32,1.16,6.28.24.27.47.53.68.81s.57.68,1,1.12a18.54,18.54,0,0,1,4.15,6.48c.28.82.34,1,3.42.2.53-.14,1.09-.28,1.66-.41,1-.23,3.91-1.23,7.24-2.38,6.61-2.28,15.66-5.41,20.67-6.16,3.26-.49,6.28-.77,9.2-1,3.77-.36,7.68-.72,12.22-1.55,4.81-.87,5.21-1.14,6-1.68a18.61,18.61,0,0,1,3.55-1.89,4.91,4.91,0,0,0,3.11-3.19,11.35,11.35,0,0,1,3.88-5.09c1.22-.91,2.83-1.89,4.51-1.33s2.36,2.46,2.93,4.43a20.38,20.38,0,0,0,1.45,3.85,20.86,20.86,0,0,1,1.94,7.15c.4,2.85.71,4.64,2.07,5.37s4.81.74,8.34.68a77.64,77.64,0,0,1,9.05.2c5.93.59,7.28,1.72,9.37,4.57a29.22,29.22,0,0,0,1.91,2.37c2.89,3.18,2.83,5.86,2.78,8.7a24.6,24.6,0,0,0,.3,5.26c.21,1.18.39,2.17.55,3a68.57,68.57,0,0,1,1.33,11.65c.21,4.15,1,4.46,2.68,5.16a12.19,12.19,0,0,1,2.8,1.48c2.89,2.12,4.32,2.57,12.89,2.57,4.45,0,9.44,1.2,10.11,4.57.12.62.12.62,1.6.84a10.18,10.18,0,0,1,5.92,2.51l1.3,1.14c1.85,1.6,3.32,2.87,3.33,4.78,0,1.71-1.21,3-2.41,4.1-1.41,1.25-1.35,1.57-.29,4.63.38,1.1.85,2.47,1.27,4.13.5,2,.85,3.88-.34,5.08a3,3,0,0,1-2.94.61c.66.54,1.47,1.13,2.07,1.56l1.21.89c2.26,1.7,2.57,2.9,2.36,4.67a4.89,4.89,0,0,0,.21,2.28,1.44,1.44,0,0,0,.18.43,10.27,10.27,0,0,0,1.65-.09,15.44,15.44,0,0,1,6.88.56c3.9,1.3,4.58,1.69,5.65,3.22a11,11,0,0,0,1.43,1.71,6.64,6.64,0,0,1,1.87,3,1.05,1.05,0,0,0,.92.76l.75.06c.81.06,3.28.24,4.08,2.18s-.8,3.88-2.38,5.68c-.48.55-1,1.12-1.32,1.6-.18.25-.34.49-.49.71a1.07,1.07,0,0,0,.32,1.5,4.87,4.87,0,0,1,2,2.09,3.59,3.59,0,0,1-.22,3.3A10.4,10.4,0,0,1,266.28,628Zm130.22,2.29Zm19.79-8.61Zm2.16-5.59h0Zm0,0h0Zm0,0h0Zm14.29-5Zm38.62-53ZM793,473.08ZM566.31,460.22Zm188-125.08Zm-690-53.67Zm663.92-10.06ZM594.88,242.85ZM425.73,70.49Z" transform="translate(-30.08 -22.1)"/>
	</g>
</svg>
