<?xml version="1.0" standalone="no"?>
<!DOCTYPE svg PUBLIC "-//W3C//DTD SVG 20010904//EN"
 "http://www.w3.org/TR/2001/REC-SVG-20010904/DTD/svg10.dtd">
<svg version="1.0" xmlns="http://www.w3.org/2000/svg"
 width="119.000000pt" height="95.000000pt" viewBox="0 0 119.000000 95.000000"
 preserveAspectRatio="xMidYMid meet">

<g transform="translate(0.000000,95.000000) scale(0.100000,-0.100000)"
fill="#000000" stroke="none">
<path d="M510 923 c-49 -18 -87 -79 -94 -150 -6 -69 -23 -128 -41 -143 -8 -7
-15 -28 -15 -47 0 -34 -1 -35 -22 -21 -38 25 -68 28 -101 10 -30 -15 -32 -19
-35 -80 -2 -71 -13 -92 -47 -92 -14 0 -33 -13 -49 -35 -14 -19 -40 -42 -56
-52 -38 -22 -38 -35 1 -67 35 -29 61 -33 79 -11 19 23 44 18 73 -15 15 -16 39
-33 54 -36 16 -4 36 -13 45 -21 14 -12 22 -13 52 -2 27 10 41 10 61 1 38 -17
47 -15 35 8 -12 23 -67 28 -103 9 -18 -10 -24 -8 -41 14 -15 18 -28 25 -41 21
-14 -3 -34 5 -59 25 -43 35 -58 38 -76 16 -17 -21 -52 -19 -72 4 -16 19 -14
22 34 70 28 28 59 51 69 51 32 0 59 36 59 79 0 22 4 42 10 46 5 3 7 12 3 20
-7 20 14 45 39 45 19 0 67 -27 79 -44 13 -17 29 5 29 39 0 19 9 50 21 69 11
20 25 67 30 105 10 83 34 137 71 159 26 15 27 15 95 -40 37 -31 77 -58 89 -62
11 -3 41 -25 65 -49 24 -23 56 -50 71 -59 25 -16 27 -16 43 2 10 11 28 20 40
20 13 0 28 7 35 15 18 22 40 18 40 -7 0 -32 11 -44 43 -50 36 -7 35 0 -3 13
-22 8 -30 17 -30 35 0 32 -19 38 -56 19 -16 -8 -37 -15 -46 -15 -9 0 -20 -5
-23 -10 -4 -6 -16 -8 -28 -4 -20 6 -38 20 -101 79 -11 11 -32 26 -46 33 -39
20 -63 35 -88 57 -72 62 -65 58 -92 48z"/>
<path d="M1050 618 c0 -6 6 -19 14 -27 7 -9 21 -43 31 -75 12 -39 25 -60 37
-64 14 -3 18 -14 18 -56 0 -29 -6 -61 -14 -71 -14 -20 -12 -40 10 -65 7 -8 14
-26 17 -40 l4 -25 2 26 c0 15 -6 32 -14 39 -19 16 -19 39 0 64 9 11 15 41 15
68 0 39 -5 52 -25 69 -13 12 -27 36 -30 53 -7 30 -51 116 -60 116 -3 0 -5 -5
-5 -12z"/>
<path d="M523 202 c-12 -2 -27 -11 -34 -20 -11 -14 -11 -15 1 -4 8 6 32 12 55
12 62 0 74 -14 82 -93 6 -70 15 -86 37 -68 7 6 15 8 18 6 3 -3 12 5 21 18 9
13 28 27 44 30 16 3 39 15 52 26 13 12 36 22 50 23 14 0 31 2 38 2 6 1 21 13
32 27 27 35 68 43 100 18 28 -22 44 -24 71 -7 16 10 24 10 40 0 22 -14 40 -8
40 11 0 8 -3 8 -9 -1 -7 -11 -12 -12 -29 -1 -17 11 -25 11 -47 -1 -23 -12 -28
-11 -55 8 -16 12 -35 22 -43 22 -30 0 -75 -22 -80 -39 -3 -13 -15 -18 -47 -19
-25 -1 -53 -10 -64 -20 -29 -24 -63 -42 -80 -42 -8 0 -18 -9 -21 -20 -4 -13
-15 -20 -32 -20 -19 0 -24 4 -19 17 4 9 2 40 -4 69 -8 39 -16 54 -33 59 -27 9
-55 11 -84 7z"/>
</g>
</svg>
